<?xml version="1.0" encoding="UTF-8"?>
<svg id="Capa_2" data-name="Capa 2" xmlns="http://www.w3.org/2000/svg" viewBox="0 0 337.83 293.25">
  <defs>
    <style>
      .cls-1 {
        fill: #9ea1ac;
      }

      .cls-1, .cls-2, .cls-3, .cls-4, .cls-5, .cls-6, .cls-7, .cls-8, .cls-9, .cls-10, .cls-11, .cls-12, .cls-13, .cls-14, .cls-15, .cls-16, .cls-17, .cls-18, .cls-19, .cls-20, .cls-21, .cls-22, .cls-23, .cls-24, .cls-25, .cls-26, .cls-27, .cls-28, .cls-29, .cls-30, .cls-31, .cls-32, .cls-33, .cls-34, .cls-35, .cls-36, .cls-37, .cls-38, .cls-39, .cls-40 {
        stroke-width: 0px;
      }

      .cls-2 {
        fill: #3b3b41;
      }

      .cls-3 {
        fill: #aaacb9;
      }

      .cls-4 {
        fill: #727683;
      }

      .cls-5 {
        fill: #7d8085;
      }

      .cls-6 {
        fill: #858788;
      }

      .cls-7 {
        fill: #444548;
      }

      .cls-8 {
        fill: #8f8f8f;
      }

      .cls-9 {
        fill: #71737f;
      }

      .cls-10 {
        fill: #696c6d;
      }

      .cls-11 {
        fill: #5b5b5b;
      }

      .cls-12 {
        fill: #555554;
      }

      .cls-13 {
        fill: #8c8f9a;
      }

      .cls-14 {
        fill: #353339;
      }

      .cls-15 {
        fill: #282830;
      }

      .cls-16 {
        fill: #a2a5b2;
      }

      .cls-17 {
        fill: #585a66;
      }

      .cls-18 {
        fill: #4b4c4d;
      }

      .cls-19 {
        fill: #616368;
      }

      .cls-20 {
        fill: #474b56;
      }

      .cls-21 {
        fill: #444953;
      }

      .cls-22 {
        fill: #5d616e;
      }

      .cls-23 {
        fill: #bbbec4;
      }

      .cls-24 {
        fill: #525154;
      }

      .cls-25 {
        fill: #2c2d3a;
      }

      .cls-26 {
        fill: #35353a;
      }

      .cls-27 {
        fill: #93969f;
      }

      .cls-28 {
        fill: #646772;
      }

      .cls-29 {
        fill: #9b9b9c;
      }

      .cls-30 {
        fill: #8a8c8b;
      }

      .cls-31 {
        fill: #92959e;
      }

      .cls-32 {
        fill: #424349;
      }

      .cls-33 {
        fill: #505461;
      }

      .cls-34 {
        fill: #898a8d;
      }

      .cls-35 {
        fill: #25272c;
      }

      .cls-36 {
        fill: #292a37;
      }

      .cls-37 {
        fill: #7b7d88;
      }

      .cls-38 {
        fill: #9497a3;
      }

      .cls-39 {
        fill: #4f525f;
      }

      .cls-40 {
        fill: #6d707a;
      }
    </style>
  </defs>
  <g id="triangles">
    <g>
      <polygon class="cls-39" points="0 293.25 15 235.25 26.66 266.75 0 293.25"/>
      <polygon class="cls-16" points="25.93 179.25 11.1 217.75 22.77 249.25 25.93 179.25"/>
      <path class="cls-39" d="M68.27,200.25c-2.44-1.5-28.6,18-28.6,18l-12.01,48.5,40.6-66.5Z"/>
      <polygon class="cls-13" points="29.83 191 38.67 212.5 26.66 261 29.83 191"/>
      <polygon class="cls-38" points="67.27 185.75 97.75 149.25 38.67 203.75 67.27 185.75"/>
      <polygon class="cls-28" points="11.83 168.75 34.67 130.25 20.67 190.25 11.83 168.75"/>
      <polygon class="cls-3" points="90.66 141.62 45.58 136.12 31.58 196.12 90.66 141.62"/>
      <polygon class="cls-20" points="97.75 157.75 121.87 130.75 113.5 221.76 97.75 157.75"/>
      <polygon class="cls-36" points="67.27 199.25 97.75 162.75 113.5 226.76 67.27 199.25"/>
      <polygon class="cls-40" points="38.24 122.5 53.78 97.5 83.32 128 38.24 122.5"/>
      <polygon class="cls-9" points="132.28 112.94 112.39 95.94 108.16 139.94 132.28 112.94"/>
      <polygon class="cls-17" points="47.5 80.31 81.27 66.81 77.04 110.81 47.5 80.31"/>
      <polygon class="cls-31" points="66.02 38.25 65.67 58.25 31.9 71.75 66.02 38.25"/>
      <polygon class="cls-25" points="123.87 134.75 155.83 169.25 115.5 225.76 123.87 134.75"/>
      <polygon class="cls-1" points="87.26 47.25 112.59 33.75 86.9 67.25 87.26 47.25"/>
      <polygon class="cls-4" points="107.82 105.5 113.62 55 87.93 88.5 107.82 105.5"/>
      <polygon class="cls-33" points="127.32 4.5 157.63 0 121.52 55 127.32 4.5"/>
      <path class="cls-37" d="M153.83,160.6s9.13-55.5,5.31-51.5-37.27,17-37.27,17l31.96,34.5Z"/>
      <polygon class="cls-22" points="154.33 27.5 155.5 65.5 118.23 82.5 154.33 27.5"/>
      <polygon class="cls-27" points="177.14 33.75 218.24 33.75 178.31 71.75 177.14 33.75"/>
      <polygon class="cls-23" points="156.83 168.25 162.14 116.75 201.99 173.25 156.83 168.25"/>
      <path class="cls-21" d="M204.65,55.62s28.04,34.5,25.89,34.75-65.83,3.25-65.83,3.25l39.94-38Z"/>
      <polygon class="cls-15" points="200.99 166 208.33 131.5 161.14 109.5 200.99 166"/>
      <polygon class="cls-19" points="226.97 97.12 208.33 122.38 161.14 100.38 226.97 97.12"/>
      <polygon class="cls-35" points="253.62 132.38 236.43 97.12 217.78 122.38 253.62 132.38"/>
      <polygon class="cls-32" points="206.99 166.25 250.16 141.75 214.33 131.75 206.99 166.25"/>
      <polygon class="cls-5" points="240.48 54.38 218.98 49.88 244.88 84.62 240.48 54.38"/>
      <polygon class="cls-10" points="309.11 74.62 268.76 74.62 264.36 44.38 309.11 74.62"/>
      <polygon class="cls-26" points="259.51 125.81 269.17 90.56 242.32 90.56 259.51 125.81"/>
      <polygon class="cls-2" points="243.16 149.75 199.99 174.25 243.16 180.26 243.16 149.75"/>
      <polygon class="cls-34" points="268.33 182.26 245.16 151.75 245.16 182.26 268.33 182.26"/>
      <polygon class="cls-12" points="297.24 86.12 334.49 133.38 283.74 86.12 297.24 86.12"/>
      <polygon class="cls-7" points="260.83 130.25 299.83 149.75 270.49 95 260.83 130.25"/>
      <polygon class="cls-11" points="319.95 137.56 298.54 145.06 269.2 90.31 319.95 137.56"/>
      <polygon class="cls-18" points="272.85 172 288.68 161 249.68 141.5 272.85 172"/>
      <polygon class="cls-24" points="290.2 210.25 283.16 171.25 267.33 182.26 290.2 210.25"/>
      <path class="cls-30" d="M284.16,171.25c4.67,1.5,22.83,24.51,22.83,24.51l-15.79,14.49-7.04-39Z"/>
      <polygon class="cls-8" points="315.99 158.25 331.24 188.25 294.58 165.75 315.99 158.25"/>
      <polygon class="cls-6" points="309.08 192.01 286.24 167.5 322.91 190 309.08 192.01"/>
      <polygon class="cls-14" points="320.83 194.75 314.41 241.25 306.99 196.76 320.83 194.75"/>
      <polygon class="cls-29" points="337.83 233.46 315.41 240.25 321.83 193.75 337.83 233.46"/>
    </g>
  </g>
</svg>